#N canvas 211 234 803 617 10;
#X floatatom 435 179 5 0 0 0 - - -, f 5;
#X floatatom 434 253 5 0 0 0 - - -, f 5;
#N canvas 993 164 667 939 xfiles 1;
#X obj 39 907 soundfiler;
#N canvas 0 50 450 250 (subpatch) 0;
#X array x0 7349 float 2;
#X coords 0 1 7349 -1 500 140 1 0 0;
#X restore 44 19 graph;
#X msg 43 807 read -resize -raw 0 1 2 l x0.raw x0;
#N canvas 0 50 450 250 (subpatch) 0;
#X array x1 7349 float 2;
#X coords 0 1 7349 -1 500 140 1 0 0;
#X restore 45 179 graph;
#N canvas 0 50 450 250 (subpatch) 0;
#X array x2 7349 float 2;
#X coords 0 1 7349 -1 500 140 1 0 0;
#X restore 43 335 graph;
#N canvas 4 58 450 250 (subpatch) 0;
#X array x3 7349 float 2;
#X coords 0 1 7349 -1 500 140 1 0 0;
#X restore 44 493 graph;
#N canvas 0 50 450 250 (subpatch) 0;
#X array x4 7349 float 2;
#X coords 0 1 7349 -1 500 140 1 0 0;
#X restore 43 650 graph;
#X msg 65 833 read -resize -raw 0 1 2 l x1.raw x1;
#X msg 123 857 read -resize -raw 0 1 2 l x2.raw x2;
#X msg 145 883 read -resize -raw 0 1 2 l x3.raw x3;
#X msg 160 907 read -resize -raw 0 1 2 l x4.raw x4;
#X obj 409 810 loadbang;
#X connect 2 0 0 0;
#X connect 7 0 0 0;
#X connect 8 0 0 0;
#X connect 9 0 0 0;
#X connect 10 0 0 0;
#X connect 11 0 2 0;
#X connect 11 0 7 0;
#X connect 11 0 8 0;
#X connect 11 0 9 0;
#X connect 11 0 10 0;
#X restore 541 341 pd xfiles;
#X obj 432 213 tabread x1;
#N canvas 994 169 667 939 yfiles 1;
#X obj 39 907 soundfiler;
#N canvas 0 50 450 250 (subpatch) 0;
#X array y0 7349 float 2;
#X coords 0 1 7349 -1 500 140 1 0 0;
#X restore 44 19 graph;
#N canvas 0 50 450 250 (subpatch) 0;
#X array y1 7349 float 2;
#X coords 0 1 7349 -1 500 140 1 0 0;
#X restore 45 179 graph;
#N canvas 0 50 450 250 (subpatch) 0;
#X array y2 7349 float 2;
#X coords 0 1 7349 -1 500 140 1 0 0;
#X restore 43 335 graph;
#N canvas 4 58 450 250 (subpatch) 0;
#X array y3 7349 float 2;
#X coords 0 1 7349 -1 500 140 1 0 0;
#X restore 44 493 graph;
#N canvas 0 50 450 250 (subpatch) 0;
#X array y4 7349 float 2;
#X coords 0 1 7349 -1 500 140 1 0 0;
#X restore 43 650 graph;
#X obj 409 810 loadbang;
#X msg 42 807 read -resize -raw 0 1 2 l y0.raw y0;
#X msg 65 833 read -resize -raw 0 1 2 l y1.raw y1;
#X msg 123 857 read -resize -raw 0 1 2 l y2.raw y2;
#X msg 145 883 read -resize -raw 0 1 2 l y3.raw y3;
#X msg 161 907 read -resize -raw 0 1 2 l y4.raw y4;
#X connect 6 0 7 0;
#X connect 6 0 8 0;
#X connect 6 0 9 0;
#X connect 6 0 10 0;
#X connect 6 0 11 0;
#X connect 7 0 0 0;
#X connect 8 0 0 0;
#X connect 9 0 0 0;
#X connect 10 0 0 0;
#X connect 11 0 0 0;
#X restore 614 342 pd yfiles;
#X connect 0 0 3 0;
#X connect 3 0 1 0;
