#N canvas 78 344 803 617 10;
#N canvas 1000 199 667 939 xfiles 0;
#X obj 39 907 soundfiler;
#N canvas 0 50 450 250 (subpatch) 0;
#X array x0 7349 float 2;
#X coords 0 1 7349 -1 500 140 1 0 0;
#X restore 44 19 graph;
#X msg 43 807 read -resize -raw 0 1 2 l x0.raw x0;
#N canvas 0 50 450 250 (subpatch) 0;
#X array x1 7349 float 2;
#X coords 0 1 7349 -1 500 140 1 0 0;
#X restore 45 179 graph;
#N canvas 0 50 450 250 (subpatch) 0;
#X array x2 7349 float 2;
#X coords 0 1 7349 -1 500 140 1 0 0;
#X restore 43 335 graph;
#N canvas 4 58 450 250 (subpatch) 0;
#X array x3 7349 float 2;
#X coords 0 1 7349 -1 500 140 1 0 0;
#X restore 44 493 graph;
#N canvas 0 50 450 250 (subpatch) 0;
#X array x4 7349 float 2;
#X coords 0 1 7349 -1 500 140 1 0 0;
#X restore 43 650 graph;
#X msg 65 833 read -resize -raw 0 1 2 l x1.raw x1;
#X msg 123 857 read -resize -raw 0 1 2 l x2.raw x2;
#X msg 145 883 read -resize -raw 0 1 2 l x3.raw x3;
#X msg 160 907 read -resize -raw 0 1 2 l x4.raw x4;
#X obj 409 810 loadbang;
#X connect 2 0 0 0;
#X connect 7 0 0 0;
#X connect 8 0 0 0;
#X connect 9 0 0 0;
#X connect 10 0 0 0;
#X connect 11 0 2 0;
#X connect 11 0 7 0;
#X connect 11 0 8 0;
#X connect 11 0 9 0;
#X connect 11 0 10 0;
#X restore 358 94 pd xfiles;
#N canvas 1003 214 667 939 yfiles 0;
#X obj 39 907 soundfiler;
#N canvas 0 50 450 250 (subpatch) 0;
#X array y0 7349 float 2;
#X coords 0 1 7349 -1 500 140 1 0 0;
#X restore 44 19 graph;
#N canvas 0 50 450 250 (subpatch) 0;
#X array y1 7349 float 2;
#X coords 0 1 7349 -1 500 140 1 0 0;
#X restore 45 179 graph;
#N canvas 0 50 450 250 (subpatch) 0;
#X array y2 7349 float 2;
#X coords 0 1 7349 -1 500 140 1 0 0;
#X restore 43 335 graph;
#N canvas 4 58 450 250 (subpatch) 0;
#X array y3 7349 float 2;
#X coords 0 1 7349 -1 500 140 1 0 0;
#X restore 44 493 graph;
#N canvas 0 50 450 250 (subpatch) 0;
#X array y4 7349 float 2;
#X coords 0 1 7349 -1 500 140 1 0 0;
#X restore 43 650 graph;
#X obj 409 810 loadbang;
#X msg 42 807 read -resize -raw 0 1 2 l y0.raw y0;
#X msg 65 833 read -resize -raw 0 1 2 l y1.raw y1;
#X msg 123 857 read -resize -raw 0 1 2 l y2.raw y2;
#X msg 145 883 read -resize -raw 0 1 2 l y3.raw y3;
#X msg 161 907 read -resize -raw 0 1 2 l y4.raw y4;
#X connect 6 0 7 0;
#X connect 6 0 8 0;
#X connect 6 0 9 0;
#X connect 6 0 10 0;
#X connect 6 0 11 0;
#X connect 7 0 0 0;
#X connect 8 0 0 0;
#X connect 9 0 0 0;
#X connect 10 0 0 0;
#X connect 11 0 0 0;
#X restore 432 94 pd yfiles;
#X obj 62 71 tgl 30 0 empty r_x0y0 empty 17 7 0 10 -8323 -262144 -262144
0 1;
#X obj 92 71 tgl 30 0 empty r_x1y0 empty 17 7 0 10 -16645 -262144 -262144
0 1;
#X obj 122 71 tgl 30 0 empty r_x2y0 empty 17 7 0 10 -12484 -262144
-262144 0 1;
#X obj 152 71 tgl 30 0 empty r_x3y0 empty 17 7 0 10 -12484 -262144
-262144 0 1;
#X obj 182 71 tgl 30 0 empty r_x4y0 empty 17 7 0 10 -8323 -262144 -262144
0 1;
#X obj 62 101 tgl 30 0 empty r_x0y1 empty 17 7 0 10 -12484 -262144
-262144 0 1;
#X obj 92 101 tgl 30 0 empty r_x1y1 empty 17 7 0 10 -20806 -262144
-262144 0 1;
#X obj 122 101 tgl 30 0 empty r_x2y1 empty 17 7 0 10 -16645 -262144
-262144 0 1;
#X obj 152 101 tgl 30 0 empty r_x3y1 empty 17 7 0 10 -16645 -262144
-262144 0 1;
#X obj 182 101 tgl 30 0 empty r_x4y1 empty 17 7 0 10 -12484 -262144
-262144 0 1;
#X obj 62 131 tgl 30 0 empty r_x0y2 empty 17 7 0 10 -8323 -262144 -262144
0 1;
#X obj 92 131 tgl 30 0 empty r_x1y2 empty 17 7 0 10 -16645 -262144
-262144 0 1;
#X obj 122 131 tgl 30 0 empty r_x2y2 empty 17 7 0 10 -12484 -262144
-262144 0 1;
#X obj 152 131 tgl 30 0 empty r_x3y2 empty 17 7 0 10 -12484 -262144
-262144 0 1;
#X obj 182 131 tgl 30 0 empty r_x4y2 empty 17 7 0 10 -8323 -262144
-262144 0 1;
#X obj 62 161 tgl 30 0 empty r_x0y3 empty 17 7 0 10 -4162 -262144 -262144
0 1;
#X obj 92 161 tgl 30 0 empty r_x1y3 empty 17 7 0 10 -12484 -262144
-262144 0 1;
#X obj 122 161 tgl 30 0 empty r_x2y3 empty 17 7 0 10 -8323 -262144
-262144 0 1;
#X obj 152 161 tgl 30 0 empty r_x3y3 empty 17 7 0 10 -8323 -262144
-262144 0 1;
#X obj 182 161 tgl 30 0 empty r_x4y3 empty 17 7 0 10 -8323 -262144
-262144 0 1;
#X obj 62 191 tgl 30 0 empty r_x0y4 empty 17 7 0 10 -4162 -262144 -262144
0 1;
#X obj 92 191 tgl 30 0 empty r_x1y4 empty 17 7 0 10 -12484 -262144
-262144 0 1;
#X obj 122 191 tgl 30 0 empty r_x2y4 empty 17 7 0 10 -8323 -262144
-262144 0 1;
#X obj 152 191 tgl 30 0 empty r_x3y4 empty 17 7 0 10 -8323 -262144
-262144 0 1;
#X obj 182 191 tgl 30 0 empty r_x4y4 empty 17 7 0 10 -4162 -262144
-262144 0 1;
#N canvas 553 449 460 283 colorize 0;
#N canvas 441 729 934 329 row1 0;
#X obj 35 172 pack 0 0 0;
#X msg 35 194 \; r_x0y0 color \$1 \$2 \$3;
#X floatatom 40 128 5 0 255 0 - - -, f 5;
#N canvas 972 583 333 353 gray__ 0;
#X obj 67 311 outlet;
#X obj 243 106 t b f;
#X obj 177 164 +;
#X obj 177 189 t b f;
#X obj 177 220 +;
#X obj 114 311 outlet;
#X obj 161 311 outlet;
#X obj 161 288 f;
#X obj 114 287 f;
#X obj 67 287 f;
#X obj 100 83 * -65536;
#X obj 177 84 * -256;
#X obj 243 84 * -1;
#X obj 177 251 - 1;
#X obj 73 172 t b b b b;
#X obj 49 23 inlet;
#X obj 48 48 t b f f f;
#X connect 1 0 2 0;
#X connect 1 1 2 1;
#X connect 2 0 3 0;
#X connect 3 0 4 0;
#X connect 3 1 4 1;
#X connect 4 0 13 0;
#X connect 7 0 6 0;
#X connect 8 0 5 0;
#X connect 9 0 0 0;
#X connect 10 0 4 0;
#X connect 11 0 2 0;
#X connect 12 0 1 0;
#X connect 13 0 9 1;
#X connect 13 0 7 1;
#X connect 13 0 8 1;
#X connect 14 0 9 0;
#X connect 14 3 13 0;
#X connect 15 0 16 0;
#X connect 16 0 14 0;
#X connect 16 1 10 0;
#X connect 16 2 11 0;
#X connect 16 3 12 0;
#X restore 39 148 pd gray__;
#X obj 29 31 r x0_val;
#X obj 97 31 r y0_val;
#X obj 44 61 +;
#X obj 41 83 / 2;
#X obj 41 105 round;
#X obj 199 173 pack 0 0 0;
#X floatatom 204 129 5 0 255 0 - - -, f 5;
#N canvas 972 583 333 353 gray__ 0;
#X obj 67 311 outlet;
#X obj 243 106 t b f;
#X obj 177 164 +;
#X obj 177 189 t b f;
#X obj 177 220 +;
#X obj 114 311 outlet;
#X obj 161 311 outlet;
#X obj 161 288 f;
#X obj 114 287 f;
#X obj 67 287 f;
#X obj 100 83 * -65536;
#X obj 177 84 * -256;
#X obj 243 84 * -1;
#X obj 177 251 - 1;
#X obj 73 172 t b b b b;
#X obj 49 23 inlet;
#X obj 48 48 t b f f f;
#X connect 1 0 2 0;
#X connect 1 1 2 1;
#X connect 2 0 3 0;
#X connect 3 0 4 0;
#X connect 3 1 4 1;
#X connect 4 0 13 0;
#X connect 7 0 6 0;
#X connect 8 0 5 0;
#X connect 9 0 0 0;
#X connect 10 0 4 0;
#X connect 11 0 2 0;
#X connect 12 0 1 0;
#X connect 13 0 9 1;
#X connect 13 0 7 1;
#X connect 13 0 8 1;
#X connect 14 0 9 0;
#X connect 14 3 13 0;
#X connect 15 0 16 0;
#X connect 16 0 14 0;
#X connect 16 1 10 0;
#X connect 16 2 11 0;
#X connect 16 3 12 0;
#X restore 203 149 pd gray__;
#X obj 261 32 r y0_val;
#X obj 208 62 +;
#X obj 205 84 / 2;
#X obj 205 106 round;
#X msg 199 195 \; r_x1y0 color \$1 \$2 \$3;
#X obj 193 32 r x1_val;
#X obj 364 175 pack 0 0 0;
#X floatatom 369 131 5 0 255 0 - - -, f 5;
#N canvas 972 583 333 353 gray__ 0;
#X obj 67 311 outlet;
#X obj 243 106 t b f;
#X obj 177 164 +;
#X obj 177 189 t b f;
#X obj 177 220 +;
#X obj 114 311 outlet;
#X obj 161 311 outlet;
#X obj 161 288 f;
#X obj 114 287 f;
#X obj 67 287 f;
#X obj 100 83 * -65536;
#X obj 177 84 * -256;
#X obj 243 84 * -1;
#X obj 177 251 - 1;
#X obj 73 172 t b b b b;
#X obj 49 23 inlet;
#X obj 48 48 t b f f f;
#X connect 1 0 2 0;
#X connect 1 1 2 1;
#X connect 2 0 3 0;
#X connect 3 0 4 0;
#X connect 3 1 4 1;
#X connect 4 0 13 0;
#X connect 7 0 6 0;
#X connect 8 0 5 0;
#X connect 9 0 0 0;
#X connect 10 0 4 0;
#X connect 11 0 2 0;
#X connect 12 0 1 0;
#X connect 13 0 9 1;
#X connect 13 0 7 1;
#X connect 13 0 8 1;
#X connect 14 0 9 0;
#X connect 14 3 13 0;
#X connect 15 0 16 0;
#X connect 16 0 14 0;
#X connect 16 1 10 0;
#X connect 16 2 11 0;
#X connect 16 3 12 0;
#X restore 368 151 pd gray__;
#X obj 426 34 r y0_val;
#X obj 373 64 +;
#X obj 370 86 / 2;
#X obj 370 108 round;
#X obj 528 176 pack 0 0 0;
#X floatatom 533 132 5 0 255 0 - - -, f 5;
#N canvas 972 583 333 353 gray__ 0;
#X obj 67 311 outlet;
#X obj 243 106 t b f;
#X obj 177 164 +;
#X obj 177 189 t b f;
#X obj 177 220 +;
#X obj 114 311 outlet;
#X obj 161 311 outlet;
#X obj 161 288 f;
#X obj 114 287 f;
#X obj 67 287 f;
#X obj 100 83 * -65536;
#X obj 177 84 * -256;
#X obj 243 84 * -1;
#X obj 177 251 - 1;
#X obj 73 172 t b b b b;
#X obj 49 23 inlet;
#X obj 48 48 t b f f f;
#X connect 1 0 2 0;
#X connect 1 1 2 1;
#X connect 2 0 3 0;
#X connect 3 0 4 0;
#X connect 3 1 4 1;
#X connect 4 0 13 0;
#X connect 7 0 6 0;
#X connect 8 0 5 0;
#X connect 9 0 0 0;
#X connect 10 0 4 0;
#X connect 11 0 2 0;
#X connect 12 0 1 0;
#X connect 13 0 9 1;
#X connect 13 0 7 1;
#X connect 13 0 8 1;
#X connect 14 0 9 0;
#X connect 14 3 13 0;
#X connect 15 0 16 0;
#X connect 16 0 14 0;
#X connect 16 1 10 0;
#X connect 16 2 11 0;
#X connect 16 3 12 0;
#X restore 532 152 pd gray__;
#X obj 590 35 r y0_val;
#X obj 537 65 +;
#X obj 534 87 / 2;
#X obj 534 109 round;
#X obj 358 34 r x2_val;
#X msg 365 197 \; r_x2y0 color \$1 \$2 \$3;
#X msg 528 198 \; r_x3y0 color \$1 \$2 \$3;
#X obj 522 35 r x3_val;
#X obj 694 175 pack 0 0 0;
#X floatatom 699 131 5 0 255 0 - - -, f 5;
#N canvas 972 583 333 353 gray__ 0;
#X obj 67 311 outlet;
#X obj 243 106 t b f;
#X obj 177 164 +;
#X obj 177 189 t b f;
#X obj 177 220 +;
#X obj 114 311 outlet;
#X obj 161 311 outlet;
#X obj 161 288 f;
#X obj 114 287 f;
#X obj 67 287 f;
#X obj 100 83 * -65536;
#X obj 177 84 * -256;
#X obj 243 84 * -1;
#X obj 177 251 - 1;
#X obj 73 172 t b b b b;
#X obj 49 23 inlet;
#X obj 48 48 t b f f f;
#X connect 1 0 2 0;
#X connect 1 1 2 1;
#X connect 2 0 3 0;
#X connect 3 0 4 0;
#X connect 3 1 4 1;
#X connect 4 0 13 0;
#X connect 7 0 6 0;
#X connect 8 0 5 0;
#X connect 9 0 0 0;
#X connect 10 0 4 0;
#X connect 11 0 2 0;
#X connect 12 0 1 0;
#X connect 13 0 9 1;
#X connect 13 0 7 1;
#X connect 13 0 8 1;
#X connect 14 0 9 0;
#X connect 14 3 13 0;
#X connect 15 0 16 0;
#X connect 16 0 14 0;
#X connect 16 1 10 0;
#X connect 16 2 11 0;
#X connect 16 3 12 0;
#X restore 698 151 pd gray__;
#X obj 756 34 r y0_val;
#X obj 703 64 +;
#X obj 700 86 / 2;
#X obj 700 108 round;
#X obj 688 34 r x4_val;
#X msg 694 197 \; r_x4y0 color \$1 \$2 \$3;
#X connect 0 0 1 0;
#X connect 2 0 3 0;
#X connect 3 0 0 0;
#X connect 3 1 0 1;
#X connect 3 2 0 2;
#X connect 4 0 6 0;
#X connect 5 0 6 1;
#X connect 6 0 7 0;
#X connect 7 0 8 0;
#X connect 8 0 2 0;
#X connect 9 0 16 0;
#X connect 10 0 11 0;
#X connect 11 0 9 0;
#X connect 11 1 9 1;
#X connect 11 2 9 2;
#X connect 12 0 13 1;
#X connect 13 0 14 0;
#X connect 14 0 15 0;
#X connect 15 0 10 0;
#X connect 17 0 13 0;
#X connect 18 0 33 0;
#X connect 19 0 20 0;
#X connect 20 0 18 0;
#X connect 20 1 18 1;
#X connect 20 2 18 2;
#X connect 21 0 22 1;
#X connect 22 0 23 0;
#X connect 23 0 24 0;
#X connect 24 0 19 0;
#X connect 25 0 34 0;
#X connect 26 0 27 0;
#X connect 27 0 25 0;
#X connect 27 1 25 1;
#X connect 27 2 25 2;
#X connect 28 0 29 1;
#X connect 29 0 30 0;
#X connect 30 0 31 0;
#X connect 31 0 26 0;
#X connect 32 0 22 0;
#X connect 35 0 29 0;
#X connect 36 0 44 0;
#X connect 37 0 38 0;
#X connect 38 0 36 0;
#X connect 38 1 36 1;
#X connect 38 2 36 2;
#X connect 39 0 40 1;
#X connect 40 0 41 0;
#X connect 41 0 42 0;
#X connect 42 0 37 0;
#X connect 43 0 40 0;
#X restore 55 55 pd row1;
#N canvas 441 729 934 329 row2 0;
#X obj 35 172 pack 0 0 0;
#X floatatom 40 128 5 0 255 0 - - -, f 5;
#N canvas 972 583 333 353 gray__ 0;
#X obj 67 311 outlet;
#X obj 243 106 t b f;
#X obj 177 164 +;
#X obj 177 189 t b f;
#X obj 177 220 +;
#X obj 114 311 outlet;
#X obj 161 311 outlet;
#X obj 161 288 f;
#X obj 114 287 f;
#X obj 67 287 f;
#X obj 100 83 * -65536;
#X obj 177 84 * -256;
#X obj 243 84 * -1;
#X obj 177 251 - 1;
#X obj 73 172 t b b b b;
#X obj 49 23 inlet;
#X obj 48 48 t b f f f;
#X connect 1 0 2 0;
#X connect 1 1 2 1;
#X connect 2 0 3 0;
#X connect 3 0 4 0;
#X connect 3 1 4 1;
#X connect 4 0 13 0;
#X connect 7 0 6 0;
#X connect 8 0 5 0;
#X connect 9 0 0 0;
#X connect 10 0 4 0;
#X connect 11 0 2 0;
#X connect 12 0 1 0;
#X connect 13 0 9 1;
#X connect 13 0 7 1;
#X connect 13 0 8 1;
#X connect 14 0 9 0;
#X connect 14 3 13 0;
#X connect 15 0 16 0;
#X connect 16 0 14 0;
#X connect 16 1 10 0;
#X connect 16 2 11 0;
#X connect 16 3 12 0;
#X restore 39 148 pd gray__;
#X obj 29 31 r x0_val;
#X obj 44 61 +;
#X obj 41 83 / 2;
#X obj 41 105 round;
#X obj 199 173 pack 0 0 0;
#X floatatom 204 129 5 0 255 0 - - -, f 5;
#N canvas 972 583 333 353 gray__ 0;
#X obj 67 311 outlet;
#X obj 243 106 t b f;
#X obj 177 164 +;
#X obj 177 189 t b f;
#X obj 177 220 +;
#X obj 114 311 outlet;
#X obj 161 311 outlet;
#X obj 161 288 f;
#X obj 114 287 f;
#X obj 67 287 f;
#X obj 100 83 * -65536;
#X obj 177 84 * -256;
#X obj 243 84 * -1;
#X obj 177 251 - 1;
#X obj 73 172 t b b b b;
#X obj 49 23 inlet;
#X obj 48 48 t b f f f;
#X connect 1 0 2 0;
#X connect 1 1 2 1;
#X connect 2 0 3 0;
#X connect 3 0 4 0;
#X connect 3 1 4 1;
#X connect 4 0 13 0;
#X connect 7 0 6 0;
#X connect 8 0 5 0;
#X connect 9 0 0 0;
#X connect 10 0 4 0;
#X connect 11 0 2 0;
#X connect 12 0 1 0;
#X connect 13 0 9 1;
#X connect 13 0 7 1;
#X connect 13 0 8 1;
#X connect 14 0 9 0;
#X connect 14 3 13 0;
#X connect 15 0 16 0;
#X connect 16 0 14 0;
#X connect 16 1 10 0;
#X connect 16 2 11 0;
#X connect 16 3 12 0;
#X restore 203 149 pd gray__;
#X obj 208 62 +;
#X obj 205 84 / 2;
#X obj 205 106 round;
#X obj 193 32 r x1_val;
#X obj 364 175 pack 0 0 0;
#X floatatom 369 131 5 0 255 0 - - -, f 5;
#N canvas 972 583 333 353 gray__ 0;
#X obj 67 311 outlet;
#X obj 243 106 t b f;
#X obj 177 164 +;
#X obj 177 189 t b f;
#X obj 177 220 +;
#X obj 114 311 outlet;
#X obj 161 311 outlet;
#X obj 161 288 f;
#X obj 114 287 f;
#X obj 67 287 f;
#X obj 100 83 * -65536;
#X obj 177 84 * -256;
#X obj 243 84 * -1;
#X obj 177 251 - 1;
#X obj 73 172 t b b b b;
#X obj 49 23 inlet;
#X obj 48 48 t b f f f;
#X connect 1 0 2 0;
#X connect 1 1 2 1;
#X connect 2 0 3 0;
#X connect 3 0 4 0;
#X connect 3 1 4 1;
#X connect 4 0 13 0;
#X connect 7 0 6 0;
#X connect 8 0 5 0;
#X connect 9 0 0 0;
#X connect 10 0 4 0;
#X connect 11 0 2 0;
#X connect 12 0 1 0;
#X connect 13 0 9 1;
#X connect 13 0 7 1;
#X connect 13 0 8 1;
#X connect 14 0 9 0;
#X connect 14 3 13 0;
#X connect 15 0 16 0;
#X connect 16 0 14 0;
#X connect 16 1 10 0;
#X connect 16 2 11 0;
#X connect 16 3 12 0;
#X restore 368 151 pd gray__;
#X obj 373 64 +;
#X obj 370 86 / 2;
#X obj 370 108 round;
#X obj 528 176 pack 0 0 0;
#X floatatom 533 132 5 0 255 0 - - -, f 5;
#N canvas 972 583 333 353 gray__ 0;
#X obj 67 311 outlet;
#X obj 243 106 t b f;
#X obj 177 164 +;
#X obj 177 189 t b f;
#X obj 177 220 +;
#X obj 114 311 outlet;
#X obj 161 311 outlet;
#X obj 161 288 f;
#X obj 114 287 f;
#X obj 67 287 f;
#X obj 100 83 * -65536;
#X obj 177 84 * -256;
#X obj 243 84 * -1;
#X obj 177 251 - 1;
#X obj 73 172 t b b b b;
#X obj 49 23 inlet;
#X obj 48 48 t b f f f;
#X connect 1 0 2 0;
#X connect 1 1 2 1;
#X connect 2 0 3 0;
#X connect 3 0 4 0;
#X connect 3 1 4 1;
#X connect 4 0 13 0;
#X connect 7 0 6 0;
#X connect 8 0 5 0;
#X connect 9 0 0 0;
#X connect 10 0 4 0;
#X connect 11 0 2 0;
#X connect 12 0 1 0;
#X connect 13 0 9 1;
#X connect 13 0 7 1;
#X connect 13 0 8 1;
#X connect 14 0 9 0;
#X connect 14 3 13 0;
#X connect 15 0 16 0;
#X connect 16 0 14 0;
#X connect 16 1 10 0;
#X connect 16 2 11 0;
#X connect 16 3 12 0;
#X restore 532 152 pd gray__;
#X obj 537 65 +;
#X obj 534 87 / 2;
#X obj 534 109 round;
#X obj 358 34 r x2_val;
#X obj 522 35 r x3_val;
#X obj 694 175 pack 0 0 0;
#X floatatom 699 131 5 0 255 0 - - -, f 5;
#N canvas 972 583 333 353 gray__ 0;
#X obj 67 311 outlet;
#X obj 243 106 t b f;
#X obj 177 164 +;
#X obj 177 189 t b f;
#X obj 177 220 +;
#X obj 114 311 outlet;
#X obj 161 311 outlet;
#X obj 161 288 f;
#X obj 114 287 f;
#X obj 67 287 f;
#X obj 100 83 * -65536;
#X obj 177 84 * -256;
#X obj 243 84 * -1;
#X obj 177 251 - 1;
#X obj 73 172 t b b b b;
#X obj 49 23 inlet;
#X obj 48 48 t b f f f;
#X connect 1 0 2 0;
#X connect 1 1 2 1;
#X connect 2 0 3 0;
#X connect 3 0 4 0;
#X connect 3 1 4 1;
#X connect 4 0 13 0;
#X connect 7 0 6 0;
#X connect 8 0 5 0;
#X connect 9 0 0 0;
#X connect 10 0 4 0;
#X connect 11 0 2 0;
#X connect 12 0 1 0;
#X connect 13 0 9 1;
#X connect 13 0 7 1;
#X connect 13 0 8 1;
#X connect 14 0 9 0;
#X connect 14 3 13 0;
#X connect 15 0 16 0;
#X connect 16 0 14 0;
#X connect 16 1 10 0;
#X connect 16 2 11 0;
#X connect 16 3 12 0;
#X restore 698 151 pd gray__;
#X obj 703 64 +;
#X obj 700 86 / 2;
#X obj 700 108 round;
#X obj 688 34 r x4_val;
#X obj 97 31 r y1_val;
#X msg 35 194 \; r_x0y1 color \$1 \$2 \$3;
#X obj 261 32 r y1_val;
#X obj 426 34 r y1_val;
#X obj 590 35 r y1_val;
#X obj 756 34 r y1_val;
#X msg 694 197 \; r_x4y1 color \$1 \$2 \$3;
#X msg 527 198 \; r_x3y1 color \$1 \$2 \$3;
#X msg 365 197 \; r_x2y1 color \$1 \$2 \$3;
#X msg 199 195 \; r_x1y1 color \$1 \$2 \$3;
#X connect 0 0 36 0;
#X connect 1 0 2 0;
#X connect 2 0 0 0;
#X connect 2 1 0 1;
#X connect 2 2 0 2;
#X connect 3 0 4 0;
#X connect 4 0 5 0;
#X connect 5 0 6 0;
#X connect 6 0 1 0;
#X connect 7 0 44 0;
#X connect 8 0 9 0;
#X connect 9 0 7 0;
#X connect 9 1 7 1;
#X connect 9 2 7 2;
#X connect 10 0 11 0;
#X connect 11 0 12 0;
#X connect 12 0 8 0;
#X connect 13 0 10 0;
#X connect 14 0 43 0;
#X connect 15 0 16 0;
#X connect 16 0 14 0;
#X connect 16 1 14 1;
#X connect 16 2 14 2;
#X connect 17 0 18 0;
#X connect 18 0 19 0;
#X connect 19 0 15 0;
#X connect 20 0 42 0;
#X connect 21 0 22 0;
#X connect 22 0 20 0;
#X connect 22 1 20 1;
#X connect 22 2 20 2;
#X connect 23 0 24 0;
#X connect 24 0 25 0;
#X connect 25 0 21 0;
#X connect 26 0 17 0;
#X connect 27 0 23 0;
#X connect 28 0 41 0;
#X connect 29 0 30 0;
#X connect 30 0 28 0;
#X connect 30 1 28 1;
#X connect 30 2 28 2;
#X connect 31 0 32 0;
#X connect 32 0 33 0;
#X connect 33 0 29 0;
#X connect 34 0 31 0;
#X connect 35 0 4 1;
#X connect 37 0 10 1;
#X connect 38 0 17 1;
#X connect 39 0 23 1;
#X connect 40 0 31 1;
#X restore 55 79 pd row2;
#N canvas 442 734 934 329 row3 0;
#X obj 35 172 pack 0 0 0;
#X floatatom 40 128 5 0 255 0 - - -, f 5;
#N canvas 972 583 333 353 gray__ 0;
#X obj 67 311 outlet;
#X obj 243 106 t b f;
#X obj 177 164 +;
#X obj 177 189 t b f;
#X obj 177 220 +;
#X obj 114 311 outlet;
#X obj 161 311 outlet;
#X obj 161 288 f;
#X obj 114 287 f;
#X obj 67 287 f;
#X obj 100 83 * -65536;
#X obj 177 84 * -256;
#X obj 243 84 * -1;
#X obj 177 251 - 1;
#X obj 73 172 t b b b b;
#X obj 49 23 inlet;
#X obj 48 48 t b f f f;
#X connect 1 0 2 0;
#X connect 1 1 2 1;
#X connect 2 0 3 0;
#X connect 3 0 4 0;
#X connect 3 1 4 1;
#X connect 4 0 13 0;
#X connect 7 0 6 0;
#X connect 8 0 5 0;
#X connect 9 0 0 0;
#X connect 10 0 4 0;
#X connect 11 0 2 0;
#X connect 12 0 1 0;
#X connect 13 0 9 1;
#X connect 13 0 7 1;
#X connect 13 0 8 1;
#X connect 14 0 9 0;
#X connect 14 3 13 0;
#X connect 15 0 16 0;
#X connect 16 0 14 0;
#X connect 16 1 10 0;
#X connect 16 2 11 0;
#X connect 16 3 12 0;
#X restore 39 148 pd gray__;
#X obj 29 31 r x0_val;
#X obj 44 61 +;
#X obj 41 83 / 2;
#X obj 41 105 round;
#X obj 199 173 pack 0 0 0;
#X floatatom 204 129 5 0 255 0 - - -, f 5;
#N canvas 972 583 333 353 gray__ 0;
#X obj 67 311 outlet;
#X obj 243 106 t b f;
#X obj 177 164 +;
#X obj 177 189 t b f;
#X obj 177 220 +;
#X obj 114 311 outlet;
#X obj 161 311 outlet;
#X obj 161 288 f;
#X obj 114 287 f;
#X obj 67 287 f;
#X obj 100 83 * -65536;
#X obj 177 84 * -256;
#X obj 243 84 * -1;
#X obj 177 251 - 1;
#X obj 73 172 t b b b b;
#X obj 49 23 inlet;
#X obj 48 48 t b f f f;
#X connect 1 0 2 0;
#X connect 1 1 2 1;
#X connect 2 0 3 0;
#X connect 3 0 4 0;
#X connect 3 1 4 1;
#X connect 4 0 13 0;
#X connect 7 0 6 0;
#X connect 8 0 5 0;
#X connect 9 0 0 0;
#X connect 10 0 4 0;
#X connect 11 0 2 0;
#X connect 12 0 1 0;
#X connect 13 0 9 1;
#X connect 13 0 7 1;
#X connect 13 0 8 1;
#X connect 14 0 9 0;
#X connect 14 3 13 0;
#X connect 15 0 16 0;
#X connect 16 0 14 0;
#X connect 16 1 10 0;
#X connect 16 2 11 0;
#X connect 16 3 12 0;
#X restore 203 149 pd gray__;
#X obj 208 62 +;
#X obj 205 84 / 2;
#X obj 205 106 round;
#X obj 193 32 r x1_val;
#X obj 364 175 pack 0 0 0;
#X floatatom 369 131 5 0 255 0 - - -, f 5;
#N canvas 972 583 333 353 gray__ 0;
#X obj 67 311 outlet;
#X obj 243 106 t b f;
#X obj 177 164 +;
#X obj 177 189 t b f;
#X obj 177 220 +;
#X obj 114 311 outlet;
#X obj 161 311 outlet;
#X obj 161 288 f;
#X obj 114 287 f;
#X obj 67 287 f;
#X obj 100 83 * -65536;
#X obj 177 84 * -256;
#X obj 243 84 * -1;
#X obj 177 251 - 1;
#X obj 73 172 t b b b b;
#X obj 49 23 inlet;
#X obj 48 48 t b f f f;
#X connect 1 0 2 0;
#X connect 1 1 2 1;
#X connect 2 0 3 0;
#X connect 3 0 4 0;
#X connect 3 1 4 1;
#X connect 4 0 13 0;
#X connect 7 0 6 0;
#X connect 8 0 5 0;
#X connect 9 0 0 0;
#X connect 10 0 4 0;
#X connect 11 0 2 0;
#X connect 12 0 1 0;
#X connect 13 0 9 1;
#X connect 13 0 7 1;
#X connect 13 0 8 1;
#X connect 14 0 9 0;
#X connect 14 3 13 0;
#X connect 15 0 16 0;
#X connect 16 0 14 0;
#X connect 16 1 10 0;
#X connect 16 2 11 0;
#X connect 16 3 12 0;
#X restore 368 151 pd gray__;
#X obj 373 64 +;
#X obj 370 86 / 2;
#X obj 370 108 round;
#X obj 528 176 pack 0 0 0;
#X floatatom 533 132 5 0 255 0 - - -, f 5;
#N canvas 972 583 333 353 gray__ 0;
#X obj 67 311 outlet;
#X obj 243 106 t b f;
#X obj 177 164 +;
#X obj 177 189 t b f;
#X obj 177 220 +;
#X obj 114 311 outlet;
#X obj 161 311 outlet;
#X obj 161 288 f;
#X obj 114 287 f;
#X obj 67 287 f;
#X obj 100 83 * -65536;
#X obj 177 84 * -256;
#X obj 243 84 * -1;
#X obj 177 251 - 1;
#X obj 73 172 t b b b b;
#X obj 49 23 inlet;
#X obj 48 48 t b f f f;
#X connect 1 0 2 0;
#X connect 1 1 2 1;
#X connect 2 0 3 0;
#X connect 3 0 4 0;
#X connect 3 1 4 1;
#X connect 4 0 13 0;
#X connect 7 0 6 0;
#X connect 8 0 5 0;
#X connect 9 0 0 0;
#X connect 10 0 4 0;
#X connect 11 0 2 0;
#X connect 12 0 1 0;
#X connect 13 0 9 1;
#X connect 13 0 7 1;
#X connect 13 0 8 1;
#X connect 14 0 9 0;
#X connect 14 3 13 0;
#X connect 15 0 16 0;
#X connect 16 0 14 0;
#X connect 16 1 10 0;
#X connect 16 2 11 0;
#X connect 16 3 12 0;
#X restore 532 152 pd gray__;
#X obj 537 65 +;
#X obj 534 87 / 2;
#X obj 534 109 round;
#X obj 358 34 r x2_val;
#X obj 522 35 r x3_val;
#X obj 694 175 pack 0 0 0;
#X floatatom 699 131 5 0 255 0 - - -, f 5;
#N canvas 972 583 333 353 gray__ 0;
#X obj 67 311 outlet;
#X obj 243 106 t b f;
#X obj 177 164 +;
#X obj 177 189 t b f;
#X obj 177 220 +;
#X obj 114 311 outlet;
#X obj 161 311 outlet;
#X obj 161 288 f;
#X obj 114 287 f;
#X obj 67 287 f;
#X obj 100 83 * -65536;
#X obj 177 84 * -256;
#X obj 243 84 * -1;
#X obj 177 251 - 1;
#X obj 73 172 t b b b b;
#X obj 49 23 inlet;
#X obj 48 48 t b f f f;
#X connect 1 0 2 0;
#X connect 1 1 2 1;
#X connect 2 0 3 0;
#X connect 3 0 4 0;
#X connect 3 1 4 1;
#X connect 4 0 13 0;
#X connect 7 0 6 0;
#X connect 8 0 5 0;
#X connect 9 0 0 0;
#X connect 10 0 4 0;
#X connect 11 0 2 0;
#X connect 12 0 1 0;
#X connect 13 0 9 1;
#X connect 13 0 7 1;
#X connect 13 0 8 1;
#X connect 14 0 9 0;
#X connect 14 3 13 0;
#X connect 15 0 16 0;
#X connect 16 0 14 0;
#X connect 16 1 10 0;
#X connect 16 2 11 0;
#X connect 16 3 12 0;
#X restore 698 151 pd gray__;
#X obj 703 64 +;
#X obj 700 86 / 2;
#X obj 700 108 round;
#X obj 688 34 r x4_val;
#X obj 97 31 r y2_val;
#X obj 261 32 r y2_val;
#X obj 426 34 r y2_val;
#X obj 590 35 r y2_val;
#X obj 756 34 r y2_val;
#X msg 694 197 \; r_x4y2 color \$1 \$2 \$3;
#X msg 527 198 \; r_x3y2 color \$1 \$2 \$3;
#X msg 365 196 \; r_x2y2 color \$1 \$2 \$3;
#X msg 199 195 \; r_x1y2 color \$1 \$2 \$3;
#X msg 35 194 \; r_x0y2 color \$1 \$2 \$3;
#X connect 0 0 44 0;
#X connect 1 0 2 0;
#X connect 2 0 0 0;
#X connect 2 1 0 1;
#X connect 2 2 0 2;
#X connect 3 0 4 0;
#X connect 4 0 5 0;
#X connect 5 0 6 0;
#X connect 6 0 1 0;
#X connect 7 0 43 0;
#X connect 8 0 9 0;
#X connect 9 0 7 0;
#X connect 9 1 7 1;
#X connect 9 2 7 2;
#X connect 10 0 11 0;
#X connect 11 0 12 0;
#X connect 12 0 8 0;
#X connect 13 0 10 0;
#X connect 14 0 42 0;
#X connect 15 0 16 0;
#X connect 16 0 14 0;
#X connect 16 1 14 1;
#X connect 16 2 14 2;
#X connect 17 0 18 0;
#X connect 18 0 19 0;
#X connect 19 0 15 0;
#X connect 20 0 41 0;
#X connect 21 0 22 0;
#X connect 22 0 20 0;
#X connect 22 1 20 1;
#X connect 22 2 20 2;
#X connect 23 0 24 0;
#X connect 24 0 25 0;
#X connect 25 0 21 0;
#X connect 26 0 17 0;
#X connect 27 0 23 0;
#X connect 28 0 40 0;
#X connect 29 0 30 0;
#X connect 30 0 28 0;
#X connect 30 1 28 1;
#X connect 30 2 28 2;
#X connect 31 0 32 0;
#X connect 32 0 33 0;
#X connect 33 0 29 0;
#X connect 34 0 31 0;
#X connect 35 0 4 1;
#X connect 36 0 10 1;
#X connect 37 0 17 1;
#X connect 38 0 23 1;
#X connect 39 0 31 1;
#X restore 55 101 pd row3;
#N canvas 443 739 934 329 row4 0;
#X obj 35 172 pack 0 0 0;
#X floatatom 40 128 5 0 255 0 - - -, f 5;
#N canvas 972 583 333 353 gray__ 0;
#X obj 67 311 outlet;
#X obj 243 106 t b f;
#X obj 177 164 +;
#X obj 177 189 t b f;
#X obj 177 220 +;
#X obj 114 311 outlet;
#X obj 161 311 outlet;
#X obj 161 288 f;
#X obj 114 287 f;
#X obj 67 287 f;
#X obj 100 83 * -65536;
#X obj 177 84 * -256;
#X obj 243 84 * -1;
#X obj 177 251 - 1;
#X obj 73 172 t b b b b;
#X obj 49 23 inlet;
#X obj 48 48 t b f f f;
#X connect 1 0 2 0;
#X connect 1 1 2 1;
#X connect 2 0 3 0;
#X connect 3 0 4 0;
#X connect 3 1 4 1;
#X connect 4 0 13 0;
#X connect 7 0 6 0;
#X connect 8 0 5 0;
#X connect 9 0 0 0;
#X connect 10 0 4 0;
#X connect 11 0 2 0;
#X connect 12 0 1 0;
#X connect 13 0 9 1;
#X connect 13 0 7 1;
#X connect 13 0 8 1;
#X connect 14 0 9 0;
#X connect 14 3 13 0;
#X connect 15 0 16 0;
#X connect 16 0 14 0;
#X connect 16 1 10 0;
#X connect 16 2 11 0;
#X connect 16 3 12 0;
#X restore 39 148 pd gray__;
#X obj 29 31 r x0_val;
#X obj 44 61 +;
#X obj 41 83 / 2;
#X obj 41 105 round;
#X obj 199 173 pack 0 0 0;
#X floatatom 204 129 5 0 255 0 - - -, f 5;
#N canvas 972 583 333 353 gray__ 0;
#X obj 67 311 outlet;
#X obj 243 106 t b f;
#X obj 177 164 +;
#X obj 177 189 t b f;
#X obj 177 220 +;
#X obj 114 311 outlet;
#X obj 161 311 outlet;
#X obj 161 288 f;
#X obj 114 287 f;
#X obj 67 287 f;
#X obj 100 83 * -65536;
#X obj 177 84 * -256;
#X obj 243 84 * -1;
#X obj 177 251 - 1;
#X obj 73 172 t b b b b;
#X obj 49 23 inlet;
#X obj 48 48 t b f f f;
#X connect 1 0 2 0;
#X connect 1 1 2 1;
#X connect 2 0 3 0;
#X connect 3 0 4 0;
#X connect 3 1 4 1;
#X connect 4 0 13 0;
#X connect 7 0 6 0;
#X connect 8 0 5 0;
#X connect 9 0 0 0;
#X connect 10 0 4 0;
#X connect 11 0 2 0;
#X connect 12 0 1 0;
#X connect 13 0 9 1;
#X connect 13 0 7 1;
#X connect 13 0 8 1;
#X connect 14 0 9 0;
#X connect 14 3 13 0;
#X connect 15 0 16 0;
#X connect 16 0 14 0;
#X connect 16 1 10 0;
#X connect 16 2 11 0;
#X connect 16 3 12 0;
#X restore 203 149 pd gray__;
#X obj 208 62 +;
#X obj 205 84 / 2;
#X obj 205 106 round;
#X obj 193 32 r x1_val;
#X obj 364 175 pack 0 0 0;
#X floatatom 369 131 5 0 255 0 - - -, f 5;
#N canvas 972 583 333 353 gray__ 0;
#X obj 67 311 outlet;
#X obj 243 106 t b f;
#X obj 177 164 +;
#X obj 177 189 t b f;
#X obj 177 220 +;
#X obj 114 311 outlet;
#X obj 161 311 outlet;
#X obj 161 288 f;
#X obj 114 287 f;
#X obj 67 287 f;
#X obj 100 83 * -65536;
#X obj 177 84 * -256;
#X obj 243 84 * -1;
#X obj 177 251 - 1;
#X obj 73 172 t b b b b;
#X obj 49 23 inlet;
#X obj 48 48 t b f f f;
#X connect 1 0 2 0;
#X connect 1 1 2 1;
#X connect 2 0 3 0;
#X connect 3 0 4 0;
#X connect 3 1 4 1;
#X connect 4 0 13 0;
#X connect 7 0 6 0;
#X connect 8 0 5 0;
#X connect 9 0 0 0;
#X connect 10 0 4 0;
#X connect 11 0 2 0;
#X connect 12 0 1 0;
#X connect 13 0 9 1;
#X connect 13 0 7 1;
#X connect 13 0 8 1;
#X connect 14 0 9 0;
#X connect 14 3 13 0;
#X connect 15 0 16 0;
#X connect 16 0 14 0;
#X connect 16 1 10 0;
#X connect 16 2 11 0;
#X connect 16 3 12 0;
#X restore 368 151 pd gray__;
#X obj 373 64 +;
#X obj 370 86 / 2;
#X obj 370 108 round;
#X obj 528 176 pack 0 0 0;
#X floatatom 533 132 5 0 255 0 - - -, f 5;
#N canvas 972 583 333 353 gray__ 0;
#X obj 67 311 outlet;
#X obj 243 106 t b f;
#X obj 177 164 +;
#X obj 177 189 t b f;
#X obj 177 220 +;
#X obj 114 311 outlet;
#X obj 161 311 outlet;
#X obj 161 288 f;
#X obj 114 287 f;
#X obj 67 287 f;
#X obj 100 83 * -65536;
#X obj 177 84 * -256;
#X obj 243 84 * -1;
#X obj 177 251 - 1;
#X obj 73 172 t b b b b;
#X obj 49 23 inlet;
#X obj 48 48 t b f f f;
#X connect 1 0 2 0;
#X connect 1 1 2 1;
#X connect 2 0 3 0;
#X connect 3 0 4 0;
#X connect 3 1 4 1;
#X connect 4 0 13 0;
#X connect 7 0 6 0;
#X connect 8 0 5 0;
#X connect 9 0 0 0;
#X connect 10 0 4 0;
#X connect 11 0 2 0;
#X connect 12 0 1 0;
#X connect 13 0 9 1;
#X connect 13 0 7 1;
#X connect 13 0 8 1;
#X connect 14 0 9 0;
#X connect 14 3 13 0;
#X connect 15 0 16 0;
#X connect 16 0 14 0;
#X connect 16 1 10 0;
#X connect 16 2 11 0;
#X connect 16 3 12 0;
#X restore 532 152 pd gray__;
#X obj 537 65 +;
#X obj 534 87 / 2;
#X obj 534 109 round;
#X obj 358 34 r x2_val;
#X obj 522 35 r x3_val;
#X obj 694 175 pack 0 0 0;
#X floatatom 699 131 5 0 255 0 - - -, f 5;
#N canvas 972 583 333 353 gray__ 0;
#X obj 67 311 outlet;
#X obj 243 106 t b f;
#X obj 177 164 +;
#X obj 177 189 t b f;
#X obj 177 220 +;
#X obj 114 311 outlet;
#X obj 161 311 outlet;
#X obj 161 288 f;
#X obj 114 287 f;
#X obj 67 287 f;
#X obj 100 83 * -65536;
#X obj 177 84 * -256;
#X obj 243 84 * -1;
#X obj 177 251 - 1;
#X obj 73 172 t b b b b;
#X obj 49 23 inlet;
#X obj 48 48 t b f f f;
#X connect 1 0 2 0;
#X connect 1 1 2 1;
#X connect 2 0 3 0;
#X connect 3 0 4 0;
#X connect 3 1 4 1;
#X connect 4 0 13 0;
#X connect 7 0 6 0;
#X connect 8 0 5 0;
#X connect 9 0 0 0;
#X connect 10 0 4 0;
#X connect 11 0 2 0;
#X connect 12 0 1 0;
#X connect 13 0 9 1;
#X connect 13 0 7 1;
#X connect 13 0 8 1;
#X connect 14 0 9 0;
#X connect 14 3 13 0;
#X connect 15 0 16 0;
#X connect 16 0 14 0;
#X connect 16 1 10 0;
#X connect 16 2 11 0;
#X connect 16 3 12 0;
#X restore 698 151 pd gray__;
#X obj 703 64 +;
#X obj 700 86 / 2;
#X obj 700 108 round;
#X obj 688 34 r x4_val;
#X obj 97 31 r y3_val;
#X obj 261 32 r y3_val;
#X obj 427 34 r y3_val;
#X obj 590 35 r y3_val;
#X obj 754 35 r y3_val;
#X msg 695 197 \; r_x4y3 color \$1 \$2 \$3;
#X msg 527 198 \; r_x3y3 color \$1 \$2 \$3;
#X msg 365 196 \; r_x2y3 color \$1 \$2 \$3;
#X msg 200 195 \; r_x1y3 color \$1 \$2 \$3;
#X msg 35 194 \; r_x0y3 color \$1 \$2 \$3;
#X connect 0 0 44 0;
#X connect 1 0 2 0;
#X connect 2 0 0 0;
#X connect 2 1 0 1;
#X connect 2 2 0 2;
#X connect 3 0 4 0;
#X connect 4 0 5 0;
#X connect 5 0 6 0;
#X connect 6 0 1 0;
#X connect 7 0 43 0;
#X connect 8 0 9 0;
#X connect 9 0 7 0;
#X connect 9 1 7 1;
#X connect 9 2 7 2;
#X connect 10 0 11 0;
#X connect 11 0 12 0;
#X connect 12 0 8 0;
#X connect 13 0 10 0;
#X connect 14 0 42 0;
#X connect 15 0 16 0;
#X connect 16 0 14 0;
#X connect 16 1 14 1;
#X connect 16 2 14 2;
#X connect 17 0 18 0;
#X connect 18 0 19 0;
#X connect 19 0 15 0;
#X connect 20 0 41 0;
#X connect 21 0 22 0;
#X connect 22 0 20 0;
#X connect 22 1 20 1;
#X connect 22 2 20 2;
#X connect 23 0 24 0;
#X connect 24 0 25 0;
#X connect 25 0 21 0;
#X connect 26 0 17 0;
#X connect 27 0 23 0;
#X connect 28 0 40 0;
#X connect 29 0 30 0;
#X connect 30 0 28 0;
#X connect 30 1 28 1;
#X connect 30 2 28 2;
#X connect 31 0 32 0;
#X connect 32 0 33 0;
#X connect 33 0 29 0;
#X connect 34 0 31 0;
#X connect 35 0 4 1;
#X connect 36 0 10 1;
#X connect 37 0 17 1;
#X connect 38 0 23 1;
#X connect 39 0 31 1;
#X restore 56 124 pd row4;
#N canvas 445 749 934 329 row5 0;
#X obj 35 172 pack 0 0 0;
#X floatatom 40 128 5 0 255 0 - - -, f 5;
#N canvas 972 583 333 353 gray__ 0;
#X obj 67 311 outlet;
#X obj 243 106 t b f;
#X obj 177 164 +;
#X obj 177 189 t b f;
#X obj 177 220 +;
#X obj 114 311 outlet;
#X obj 161 311 outlet;
#X obj 161 288 f;
#X obj 114 287 f;
#X obj 67 287 f;
#X obj 100 83 * -65536;
#X obj 177 84 * -256;
#X obj 243 84 * -1;
#X obj 177 251 - 1;
#X obj 73 172 t b b b b;
#X obj 49 23 inlet;
#X obj 48 48 t b f f f;
#X connect 1 0 2 0;
#X connect 1 1 2 1;
#X connect 2 0 3 0;
#X connect 3 0 4 0;
#X connect 3 1 4 1;
#X connect 4 0 13 0;
#X connect 7 0 6 0;
#X connect 8 0 5 0;
#X connect 9 0 0 0;
#X connect 10 0 4 0;
#X connect 11 0 2 0;
#X connect 12 0 1 0;
#X connect 13 0 9 1;
#X connect 13 0 7 1;
#X connect 13 0 8 1;
#X connect 14 0 9 0;
#X connect 14 3 13 0;
#X connect 15 0 16 0;
#X connect 16 0 14 0;
#X connect 16 1 10 0;
#X connect 16 2 11 0;
#X connect 16 3 12 0;
#X restore 39 148 pd gray__;
#X obj 29 31 r x0_val;
#X obj 44 61 +;
#X obj 41 83 / 2;
#X obj 41 105 round;
#X obj 199 173 pack 0 0 0;
#X floatatom 204 129 5 0 255 0 - - -, f 5;
#N canvas 972 583 333 353 gray__ 0;
#X obj 67 311 outlet;
#X obj 243 106 t b f;
#X obj 177 164 +;
#X obj 177 189 t b f;
#X obj 177 220 +;
#X obj 114 311 outlet;
#X obj 161 311 outlet;
#X obj 161 288 f;
#X obj 114 287 f;
#X obj 67 287 f;
#X obj 100 83 * -65536;
#X obj 177 84 * -256;
#X obj 243 84 * -1;
#X obj 177 251 - 1;
#X obj 73 172 t b b b b;
#X obj 49 23 inlet;
#X obj 48 48 t b f f f;
#X connect 1 0 2 0;
#X connect 1 1 2 1;
#X connect 2 0 3 0;
#X connect 3 0 4 0;
#X connect 3 1 4 1;
#X connect 4 0 13 0;
#X connect 7 0 6 0;
#X connect 8 0 5 0;
#X connect 9 0 0 0;
#X connect 10 0 4 0;
#X connect 11 0 2 0;
#X connect 12 0 1 0;
#X connect 13 0 9 1;
#X connect 13 0 7 1;
#X connect 13 0 8 1;
#X connect 14 0 9 0;
#X connect 14 3 13 0;
#X connect 15 0 16 0;
#X connect 16 0 14 0;
#X connect 16 1 10 0;
#X connect 16 2 11 0;
#X connect 16 3 12 0;
#X restore 203 149 pd gray__;
#X obj 208 62 +;
#X obj 205 84 / 2;
#X obj 205 106 round;
#X obj 193 32 r x1_val;
#X obj 364 175 pack 0 0 0;
#X floatatom 369 131 5 0 255 0 - - -, f 5;
#N canvas 972 583 333 353 gray__ 0;
#X obj 67 311 outlet;
#X obj 243 106 t b f;
#X obj 177 164 +;
#X obj 177 189 t b f;
#X obj 177 220 +;
#X obj 114 311 outlet;
#X obj 161 311 outlet;
#X obj 161 288 f;
#X obj 114 287 f;
#X obj 67 287 f;
#X obj 100 83 * -65536;
#X obj 177 84 * -256;
#X obj 243 84 * -1;
#X obj 177 251 - 1;
#X obj 73 172 t b b b b;
#X obj 49 23 inlet;
#X obj 48 48 t b f f f;
#X connect 1 0 2 0;
#X connect 1 1 2 1;
#X connect 2 0 3 0;
#X connect 3 0 4 0;
#X connect 3 1 4 1;
#X connect 4 0 13 0;
#X connect 7 0 6 0;
#X connect 8 0 5 0;
#X connect 9 0 0 0;
#X connect 10 0 4 0;
#X connect 11 0 2 0;
#X connect 12 0 1 0;
#X connect 13 0 9 1;
#X connect 13 0 7 1;
#X connect 13 0 8 1;
#X connect 14 0 9 0;
#X connect 14 3 13 0;
#X connect 15 0 16 0;
#X connect 16 0 14 0;
#X connect 16 1 10 0;
#X connect 16 2 11 0;
#X connect 16 3 12 0;
#X restore 368 151 pd gray__;
#X obj 373 64 +;
#X obj 370 86 / 2;
#X obj 370 108 round;
#X obj 528 176 pack 0 0 0;
#X floatatom 533 132 5 0 255 0 - - -, f 5;
#N canvas 972 583 333 353 gray__ 0;
#X obj 67 311 outlet;
#X obj 243 106 t b f;
#X obj 177 164 +;
#X obj 177 189 t b f;
#X obj 177 220 +;
#X obj 114 311 outlet;
#X obj 161 311 outlet;
#X obj 161 288 f;
#X obj 114 287 f;
#X obj 67 287 f;
#X obj 100 83 * -65536;
#X obj 177 84 * -256;
#X obj 243 84 * -1;
#X obj 177 251 - 1;
#X obj 73 172 t b b b b;
#X obj 49 23 inlet;
#X obj 48 48 t b f f f;
#X connect 1 0 2 0;
#X connect 1 1 2 1;
#X connect 2 0 3 0;
#X connect 3 0 4 0;
#X connect 3 1 4 1;
#X connect 4 0 13 0;
#X connect 7 0 6 0;
#X connect 8 0 5 0;
#X connect 9 0 0 0;
#X connect 10 0 4 0;
#X connect 11 0 2 0;
#X connect 12 0 1 0;
#X connect 13 0 9 1;
#X connect 13 0 7 1;
#X connect 13 0 8 1;
#X connect 14 0 9 0;
#X connect 14 3 13 0;
#X connect 15 0 16 0;
#X connect 16 0 14 0;
#X connect 16 1 10 0;
#X connect 16 2 11 0;
#X connect 16 3 12 0;
#X restore 532 152 pd gray__;
#X obj 537 65 +;
#X obj 534 87 / 2;
#X obj 534 109 round;
#X obj 358 34 r x2_val;
#X obj 522 35 r x3_val;
#X obj 694 175 pack 0 0 0;
#X floatatom 699 131 5 0 255 0 - - -, f 5;
#N canvas 972 583 333 353 gray__ 0;
#X obj 67 311 outlet;
#X obj 243 106 t b f;
#X obj 177 164 +;
#X obj 177 189 t b f;
#X obj 177 220 +;
#X obj 114 311 outlet;
#X obj 161 311 outlet;
#X obj 161 288 f;
#X obj 114 287 f;
#X obj 67 287 f;
#X obj 100 83 * -65536;
#X obj 177 84 * -256;
#X obj 243 84 * -1;
#X obj 177 251 - 1;
#X obj 73 172 t b b b b;
#X obj 49 23 inlet;
#X obj 48 48 t b f f f;
#X connect 1 0 2 0;
#X connect 1 1 2 1;
#X connect 2 0 3 0;
#X connect 3 0 4 0;
#X connect 3 1 4 1;
#X connect 4 0 13 0;
#X connect 7 0 6 0;
#X connect 8 0 5 0;
#X connect 9 0 0 0;
#X connect 10 0 4 0;
#X connect 11 0 2 0;
#X connect 12 0 1 0;
#X connect 13 0 9 1;
#X connect 13 0 7 1;
#X connect 13 0 8 1;
#X connect 14 0 9 0;
#X connect 14 3 13 0;
#X connect 15 0 16 0;
#X connect 16 0 14 0;
#X connect 16 1 10 0;
#X connect 16 2 11 0;
#X connect 16 3 12 0;
#X restore 698 151 pd gray__;
#X obj 703 64 +;
#X obj 700 86 / 2;
#X obj 700 108 round;
#X obj 688 34 r x4_val;
#X obj 97 31 r y4_val;
#X obj 261 32 r y4_val;
#X obj 427 34 r y4_val;
#X obj 590 35 r y4_val;
#X obj 754 35 r y4_val;
#X msg 695 197 \; r_x4y4 color \$1 \$2 \$3;
#X msg 527 198 \; r_x3y4 color \$1 \$2 \$3;
#X msg 365 196 \; r_x2y4 color \$1 \$2 \$3;
#X msg 200 195 \; r_x1y4 color \$1 \$2 \$3;
#X msg 35 194 \; r_x0y4 color \$1 \$2 \$3;
#X connect 0 0 44 0;
#X connect 1 0 2 0;
#X connect 2 0 0 0;
#X connect 2 1 0 1;
#X connect 2 2 0 2;
#X connect 3 0 4 0;
#X connect 4 0 5 0;
#X connect 5 0 6 0;
#X connect 6 0 1 0;
#X connect 7 0 43 0;
#X connect 8 0 9 0;
#X connect 9 0 7 0;
#X connect 9 1 7 1;
#X connect 9 2 7 2;
#X connect 10 0 11 0;
#X connect 11 0 12 0;
#X connect 12 0 8 0;
#X connect 13 0 10 0;
#X connect 14 0 42 0;
#X connect 15 0 16 0;
#X connect 16 0 14 0;
#X connect 16 1 14 1;
#X connect 16 2 14 2;
#X connect 17 0 18 0;
#X connect 18 0 19 0;
#X connect 19 0 15 0;
#X connect 20 0 41 0;
#X connect 21 0 22 0;
#X connect 22 0 20 0;
#X connect 22 1 20 1;
#X connect 22 2 20 2;
#X connect 23 0 24 0;
#X connect 24 0 25 0;
#X connect 25 0 21 0;
#X connect 26 0 17 0;
#X connect 27 0 23 0;
#X connect 28 0 40 0;
#X connect 29 0 30 0;
#X connect 30 0 28 0;
#X connect 30 1 28 1;
#X connect 30 2 28 2;
#X connect 31 0 32 0;
#X connect 32 0 33 0;
#X connect 33 0 29 0;
#X connect 34 0 31 0;
#X connect 35 0 4 1;
#X connect 36 0 10 1;
#X connect 37 0 17 1;
#X connect 38 0 23 1;
#X connect 39 0 31 1;
#X restore 57 146 pd row5;
#X restore 266 95 pd colorize;
#N canvas 504 186 933 703 players 0;
#X obj 29 202 tabread4~ x0;
#X obj 29 178 vline~;
#X msg 29 152 0 \, 7349 306000;
#X obj 29 246 snapshot~;
#X obj 645 67 bng 15 250 50 0 empty empty empty 17 7 0 10 -262144 -1
-1;
#X obj 666 66 loadbang;
#X obj 152 178 vline~;
#X msg 152 152 0 \, 7349 306000;
#X obj 152 246 snapshot~;
#X obj 152 202 tabread4~ x1;
#X obj 274 177 vline~;
#X msg 274 151 0 \, 7349 306000;
#X obj 274 245 snapshot~;
#X obj 274 201 tabread4~ x2;
#X obj 398 178 vline~;
#X msg 398 152 0 \, 7349 306000;
#X obj 398 246 snapshot~;
#X obj 520 177 vline~;
#X msg 520 151 0 \, 7349 306000;
#X obj 520 245 snapshot~;
#X obj 398 202 tabread4~ x3;
#X obj 520 201 tabread4~ x4;
#X msg 111 97 bang;
#X obj 29 372 vline~;
#X msg 29 346 0 \, 7349 306000;
#X obj 29 440 snapshot~;
#X obj 152 372 vline~;
#X msg 152 346 0 \, 7349 306000;
#X obj 152 440 snapshot~;
#X obj 274 371 vline~;
#X msg 274 345 0 \, 7349 306000;
#X obj 274 439 snapshot~;
#X obj 398 372 vline~;
#X msg 398 346 0 \, 7349 306000;
#X obj 398 440 snapshot~;
#X obj 520 371 vline~;
#X msg 520 345 0 \, 7349 306000;
#X obj 520 439 snapshot~;
#X obj 29 396 tabread4~ y0;
#X obj 152 396 tabread4~ y1;
#X obj 274 395 tabread4~ y2;
#X obj 399 396 tabread4~ y3;
#X obj 520 395 tabread4~ y4;
#X obj 643 90 metro 10;
#X obj 107 12 inlet;
#X obj 49 306 outlet~;
#X obj 107 306 outlet~;
#X obj 162 306 outlet~;
#X obj 220 306 outlet~;
#X obj 275 306 outlet~;
#X obj 387 517 outlet~;
#X obj 445 517 outlet~;
#X obj 500 517 outlet~;
#X obj 558 517 outlet~;
#X obj 613 517 outlet~;
#X obj 651 149 t b b b b b b;
#X obj 720 327 t b b b b b;
#X obj 114 631 pack f f f f f f f f f f;
#X obj 113 659 s allvalues;
#X obj 111 41 route bang stop;
#X msg 168 83 0;
#X connect 0 0 3 0;
#X connect 0 0 45 0;
#X connect 1 0 0 0;
#X connect 2 0 1 0;
#X connect 3 0 57 0;
#X connect 4 0 43 0;
#X connect 5 0 43 0;
#X connect 6 0 9 0;
#X connect 7 0 6 0;
#X connect 8 0 57 1;
#X connect 9 0 8 0;
#X connect 9 0 46 0;
#X connect 10 0 13 0;
#X connect 11 0 10 0;
#X connect 12 0 57 2;
#X connect 13 0 12 0;
#X connect 13 0 47 0;
#X connect 14 0 20 0;
#X connect 15 0 14 0;
#X connect 16 0 57 3;
#X connect 17 0 21 0;
#X connect 18 0 17 0;
#X connect 19 0 57 4;
#X connect 20 0 16 0;
#X connect 20 0 48 0;
#X connect 21 0 19 0;
#X connect 21 0 49 0;
#X connect 22 0 2 0;
#X connect 22 0 7 0;
#X connect 22 0 11 0;
#X connect 22 0 15 0;
#X connect 22 0 18 0;
#X connect 22 0 24 0;
#X connect 22 0 27 0;
#X connect 22 0 30 0;
#X connect 22 0 33 0;
#X connect 22 0 36 0;
#X connect 23 0 38 0;
#X connect 24 0 23 0;
#X connect 25 0 57 5;
#X connect 26 0 39 0;
#X connect 27 0 26 0;
#X connect 28 0 57 6;
#X connect 29 0 40 0;
#X connect 30 0 29 0;
#X connect 31 0 57 7;
#X connect 32 0 41 0;
#X connect 33 0 32 0;
#X connect 34 0 57 8;
#X connect 35 0 42 0;
#X connect 36 0 35 0;
#X connect 37 0 57 9;
#X connect 38 0 25 0;
#X connect 38 0 50 0;
#X connect 39 0 28 0;
#X connect 39 0 51 0;
#X connect 40 0 31 0;
#X connect 40 0 52 0;
#X connect 41 0 34 0;
#X connect 41 0 53 0;
#X connect 42 0 37 0;
#X connect 42 0 54 0;
#X connect 43 0 55 0;
#X connect 44 0 59 0;
#X connect 55 0 3 0;
#X connect 55 1 8 0;
#X connect 55 2 12 0;
#X connect 55 3 16 0;
#X connect 55 4 19 0;
#X connect 55 5 56 0;
#X connect 56 0 25 0;
#X connect 56 1 28 0;
#X connect 56 2 31 0;
#X connect 56 3 34 0;
#X connect 56 4 37 0;
#X connect 57 0 58 0;
#X connect 59 0 22 0;
#X connect 59 1 60 0;
#X connect 60 0 1 0;
#X connect 60 0 6 0;
#X connect 60 0 10 0;
#X connect 60 0 14 0;
#X connect 60 0 17 0;
#X connect 60 0 23 0;
#X connect 60 0 26 0;
#X connect 60 0 29 0;
#X connect 60 0 32 0;
#X connect 60 0 35 0;
#X restore 264 187 pd players;
#X obj 264 161 bng 15 250 50 0 empty empty empty 17 7 0 10 -4034 -1
-1;
#X obj 269 357 sout~;
#N canvas 1047 337 650 462 sound 0;
#X obj 38 27 inlet~;
#X text 43 8 x1;
#X obj 88 27 inlet~;
#X obj 137 26 inlet~;
#X obj 186 27 inlet~;
#X obj 235 26 inlet~;
#X text 94 8 x2;
#X text 142 7 x3;
#X text 191 8 x4;
#X text 240 7 x5;
#X obj 368 32 inlet~;
#X obj 418 32 inlet~;
#X obj 467 31 inlet~;
#X obj 516 32 inlet~;
#X obj 565 31 inlet~;
#X text 372 14 y1;
#X text 424 13 y2;
#X text 472 11 y3;
#X text 521 13 y4;
#X text 570 12 y5;
#X obj 47 397 outlet~;
#X obj 309 396 outlet~;
#N canvas 835 702 338 383 noise1 0;
#X obj 42 17 inlet~;
#X obj 56 350 outlet~;
#X obj 60 131 noise~;
#X obj 41 67 +~ 1;
#X obj 44 196 lop~ 1215;
#X floatatom 122 198 5 0 0 0 - - -, f 5;
#X floatatom 169 198 5 0 0 0 - - -, f 5;
#X floatatom 169 250 5 0 0 0 - - -, f 5;
#X obj 90 236 bp~ 2000 5;
#X obj 91 261 lop~ 1505;
#X obj 50 317 *~ 1;
#X obj 43 171 vcf~ 16;
#X obj 41 87 *~ 1800;
#X connect 0 0 3 0;
#X connect 2 0 11 0;
#X connect 3 0 12 0;
#X connect 4 0 8 0;
#X connect 5 0 8 1;
#X connect 6 0 8 2;
#X connect 7 0 9 1;
#X connect 8 0 9 0;
#X connect 9 0 10 0;
#X connect 10 0 1 0;
#X connect 11 0 4 0;
#X connect 11 0 10 0;
#X connect 12 0 11 1;
#X restore 41 269 pd noise1;
#N canvas 1266 634 303 386 noise2 0;
#X obj 32 38 inlet~;
#X obj 36 338 outlet~;
#X obj 54 105 noise~;
#X obj 32 62 +~ 1;
#X obj 44 171 lop~ 1215;
#X floatatom 116 172 5 0 0 0 - - -, f 5;
#X floatatom 163 172 5 0 0 0 - - -, f 5;
#X floatatom 163 224 5 0 0 0 - - -, f 5;
#X obj 84 210 bp~ 2000 5;
#X obj 85 235 lop~ 505;
#X obj 36 294 *~ 1;
#X obj 37 145 vcf~ 16;
#X obj 32 82 *~ 1800, f 25;
#X connect 0 0 3 0;
#X connect 2 0 11 0;
#X connect 3 0 12 0;
#X connect 4 0 8 0;
#X connect 5 0 8 1;
#X connect 6 0 8 2;
#X connect 7 0 9 1;
#X connect 8 0 9 0;
#X connect 9 0 10 0;
#X connect 10 0 1 0;
#X connect 11 0 4 0;
#X connect 11 0 8 0;
#X connect 11 0 10 0;
#X connect 12 0 11 1;
#X restore 324 273 pd noise2;
#X connect 0 0 22 0;
#X connect 10 0 23 0;
#X connect 22 0 20 0;
#X connect 23 0 21 0;
#X restore 268 287 pd sound;
#N canvas 888 189 692 516 data-broadcast 0;
#X obj 558 384 range -1 1 0 255;
#X obj 558 407 s y4_val;
#X obj 169 43 r allvalues;
#X obj 171 141 unpack f f f f f f f f f f;
#X floatatom 558 367 5 0 0 0 - - -, f 5;
#X obj 440 384 range -1 1 0 255;
#X floatatom 440 367 5 0 0 0 - - -, f 5;
#X obj 440 407 s y3_val;
#X obj 321 386 range -1 1 0 255;
#X floatatom 321 369 5 0 0 0 - - -, f 5;
#X obj 203 386 range -1 1 0 255;
#X floatatom 203 369 5 0 0 0 - - -, f 5;
#X obj 85 386 range -1 1 0 255;
#X floatatom 85 369 5 0 0 0 - - -, f 5;
#X obj 203 408 s y1_val;
#X obj 85 408 s y0_val;
#X obj 321 409 s y2_val;
#X obj 538 263 range -1 1 0 255;
#X floatatom 538 246 5 0 0 0 - - -, f 5;
#X obj 420 263 range -1 1 0 255;
#X floatatom 420 246 5 0 0 0 - - -, f 5;
#X obj 301 265 range -1 1 0 255;
#X floatatom 301 248 5 0 0 0 - - -, f 5;
#X obj 183 265 range -1 1 0 255;
#X floatatom 183 248 5 0 0 0 - - -, f 5;
#X obj 65 265 range -1 1 0 255;
#X floatatom 65 248 5 0 0 0 - - -, f 5;
#X obj 65 287 s x0_val;
#X obj 182 287 s x1_val;
#X obj 301 288 s x2_val;
#X obj 420 286 s x3_val;
#X obj 538 286 s x4_val;
#N canvas 959 587 397 416 sums 0;
#X obj 32 19 inlet;
#X obj 58 86 unpack f f f f f f f f f f;
#X obj 119 208 +;
#X obj 99 185 +;
#X obj 79 161 +;
#X obj 59 136 +;
#X obj 119 246 s xtot_val;
#X floatatom 153 230 5 0 0 0 - - -, f 5;
#X obj 219 203 +;
#X obj 199 180 +;
#X obj 179 156 +;
#X obj 159 131 +;
#X floatatom 262 224 5 0 0 0 - - -, f 5;
#X obj 226 242 s ytot_val;
#X obj 201 276 +;
#X floatatom 212 297 5 0 0 0 - - -, f 5;
#X obj 197 324 s tot_val;
#X connect 0 0 1 0;
#X connect 1 0 5 0;
#X connect 1 1 5 1;
#X connect 1 2 4 1;
#X connect 1 3 3 1;
#X connect 1 4 2 1;
#X connect 1 5 11 0;
#X connect 1 6 11 1;
#X connect 1 7 10 1;
#X connect 1 8 9 1;
#X connect 1 9 8 1;
#X connect 2 0 7 0;
#X connect 2 0 6 0;
#X connect 2 0 14 0;
#X connect 3 0 2 0;
#X connect 4 0 3 0;
#X connect 5 0 4 0;
#X connect 8 0 12 0;
#X connect 8 0 13 0;
#X connect 8 0 14 1;
#X connect 9 0 8 0;
#X connect 10 0 9 0;
#X connect 11 0 10 0;
#X connect 14 0 15 0;
#X connect 14 0 16 0;
#X restore 238 96 pd sums;
#X connect 0 0 1 0;
#X connect 2 0 3 0;
#X connect 2 0 32 0;
#X connect 3 0 26 0;
#X connect 3 1 24 0;
#X connect 3 2 22 0;
#X connect 3 3 20 0;
#X connect 3 4 18 0;
#X connect 3 5 13 0;
#X connect 3 6 11 0;
#X connect 3 7 9 0;
#X connect 3 8 6 0;
#X connect 3 9 4 0;
#X connect 4 0 0 0;
#X connect 5 0 7 0;
#X connect 6 0 5 0;
#X connect 8 0 16 0;
#X connect 9 0 8 0;
#X connect 10 0 14 0;
#X connect 11 0 10 0;
#X connect 12 0 15 0;
#X connect 13 0 12 0;
#X connect 17 0 31 0;
#X connect 18 0 17 0;
#X connect 19 0 30 0;
#X connect 20 0 19 0;
#X connect 21 0 29 0;
#X connect 22 0 21 0;
#X connect 23 0 28 0;
#X connect 24 0 23 0;
#X connect 25 0 27 0;
#X connect 26 0 25 0;
#X restore 344 188 pd data-broadcast;
#X msg 285 160 stop;
#X connect 28 0 31 0;
#X connect 28 1 31 1;
#X connect 28 2 31 2;
#X connect 28 3 31 3;
#X connect 28 4 31 4;
#X connect 28 5 31 5;
#X connect 28 6 31 6;
#X connect 28 7 31 7;
#X connect 28 8 31 8;
#X connect 28 9 31 9;
#X connect 29 0 28 0;
#X connect 31 0 30 0;
#X connect 31 1 30 1;
#X connect 33 0 28 0;
